Coordinates
version=1
nRows=13
nColumns=18
inDegrees=yes

Units are S.I. units (second, meters, Newtons, ...)
Angles are in degrees.

endheader
time	ground_thorax_rot_x	ground_thorax_rot_y	ground_thorax_rot_z	ground_thorax_tx	ground_thorax_ty	ground_thorax_tz	clav_prot	clav_elev	scapula_abduction	scapula_elevation	scapula_upward_rot	scapula_winging	plane_elv	shoulder_elv	axial_rot	elbow_flexion	pro_sup
      1.20000000	      0.65778483	     -5.64930359	     -9.19968839	     -0.00423131	      0.00403036	     -0.00078352	    -27.83917186	      2.30553308	    -19.84578421	     -0.94287587	     19.14019144	      1.79570252	     -9.59379682	     10.81163459	     22.86155568	      0.00000000	     34.32000000
      1.21000000	      0.87486652	     -5.95741839	     -9.25208319	     -0.00423131	      0.00403036	     -0.00078352	    -28.16821688	      3.10980648	    -20.08655864	     -0.60198512	     20.09789560	      1.32846982	     -6.98902425	     10.17515494	     20.74655812	      0.00000000	     34.32000000
      1.22000000	      0.92537286	     -6.05748647	     -9.17213156	     -0.00423131	      0.00403036	     -0.00078352	    -28.53048606	      3.84549544	    -20.56784280	     -0.23795355	     20.74111733	      0.96183149	     -4.42731782	      9.66150986	     18.60771795	      0.00000000	     34.32000000
      1.23000000	      0.79789395	     -5.66414270	     -9.26228240	     -0.00423131	      0.00403036	     -0.00078352	    -29.27889462	      4.35838606	    -21.82458526	      0.00667178	     21.06872378	      0.64139416	     -0.60638238	      9.34890702	     14.44546084	      0.00000000	     34.32000000
      1.24000000	      0.40752837	     -5.53530602	     -8.94769987	     -0.00423131	      0.00403036	     -0.00078352	    -29.57562697	      4.77384600	    -22.40711325	      0.25792448	     21.20805877	      0.47872457	     -0.44502012	      9.01831110	     14.36590560	      0.00000000	     34.32000000
      1.25000000	      0.62004997	     -5.36219240	     -9.14383599	     -0.00423131	      0.00403036	     -0.00078352	    -30.36164855	      5.32048556	    -23.54948234	      0.45441970	     21.81404180	      0.04077025	      4.28535287	      9.00297085	     10.79521713	      0.00000000	     34.32000000
      1.26000000	      0.66503676	     -5.54666688	     -9.23545456	     -0.00423131	      0.00403036	     -0.00078352	    -30.71258904	      5.69383766	    -23.79637979	      0.52725312	     22.54738607	     -0.31348925	      5.85498830	      8.77044206	      8.96823771	      0.00000000	     34.32000000
      1.27000000	      0.41583866	     -5.67051600	     -9.23718844	     -0.00423131	      0.00403036	     -0.00078352	    -30.75389213	      5.71548215	    -23.79032890	      0.51121209	     22.66917435	     -0.36314741	      5.81826373	      8.86696194	      8.95859509	      0.00000000	     34.32000000
      1.28000000	      0.69670823	     -5.83106578	     -9.33362746	     -0.00423131	      0.00403036	     -0.00078352	    -31.05316975	      6.23288897	    -23.69397345	      0.59099632	     23.85547424	     -0.85574213	      5.11386389	      8.48193429	      7.78507462	      0.00000000	     34.32000000
      1.29000000	      0.29005180	     -6.06723754	     -9.24614727	     -0.00423131	      0.00403036	     -0.00078352	    -31.07138643	      6.39921430	    -23.71183442	      0.68248971	     23.98156240	     -0.91712107	      4.97485279	      8.37204671	      7.70640784	      0.00000000	     34.32000000
      1.30000000	      0.29082805	     -6.19584576	     -9.05420810	     -0.00423131	      0.00403036	     -0.00078352	    -31.39494504	      7.17596197	    -23.98956580	      1.02374900	     24.85953707	     -1.35147436	      4.41672171	      7.63881335	      7.10084593	      0.00000000	     34.32000000
      1.31000000	      0.25155863	     -6.52348980	     -9.02583823	     -0.00423131	      0.00403036	     -0.00078352	    -31.54079765	      7.63117220	    -23.98951461	      1.19949780	     25.50031807	     -1.62740305	      4.91054996	      7.29861828	      6.19291559	      0.00000000	     34.32000000
      1.32000000	      0.38068631	     -6.73256439	     -9.05818542	     -0.00423131	      0.00403036	     -0.00078352	    -31.71937409	      7.89941975	    -23.94997582	      1.23750127	     26.14156184	     -1.89481154	      4.79490003	      7.20537986	      5.38328279	      0.00000000	     34.32000000
